<?xml version="1.0" encoding="utf-8"?>
<!-- Generator: Adobe Illustrator 19.0.0, SVG Export Plug-In . SVG Version: 6.00 Build 0)  -->
<svg version="1.1" id="Слой_1" xmlns="http://www.w3.org/2000/svg" xmlns:xlink="http://www.w3.org/1999/xlink" x="0px" y="0px"
	 width="126px" height="84px" viewBox="0 0 126 84" style="enable-background:new 0 0 126 84;" xml:space="preserve">
<style type="text/css">
	.st0{fill:#787878;}
	.st1{display:none;fill:#787878;}
</style>
<g id="responsive">
	<path class="st0" d="M101.3,45.2h-2.6c-0.3,0-0.5-0.2-0.5-0.5s0.2-0.5,0.5-0.5h2.6c0.3,0,0.5,0.2,0.5,0.5S101.6,45.2,101.3,45.2z"
		/>
	<path class="st0" d="M99.7,81.9c-1.3,0-2.4-1.1-2.4-2.4c0-1.3,1.1-2.4,2.4-2.4s2.4,1.1,2.4,2.4C102.1,80.8,101.1,81.9,99.7,81.9z
		 M99.7,78.1c-0.8,0-1.4,0.6-1.4,1.4c0,0.8,0.6,1.4,1.4,1.4s1.4-0.6,1.4-1.4C101.1,78.7,100.5,78.1,99.7,78.1z"/>
	<g>
		<path class="st0" d="M122.9,54.6H115v-9.7c0-1.6-1.3-2.8-2.8-2.8H87.8c-1.6,0-2.8,1.3-2.8,2.8v35.8c0,1.6,1.3,2.8,2.8,2.8h20.4
			l0,0c0.4,0.4,0.9,0.6,1.5,0.6h13.1c1.2,0,2.2-1,2.2-2.2V56.7C125,55.6,124,54.6,122.9,54.6z M86,80.7V44.9c0-1,0.8-1.8,1.8-1.8
			h24.4c1,0,1.8,0.8,1.8,1.8v9.7h-2.1v-6.4c0-0.9-0.8-1.7-1.7-1.7H89.8c-0.9,0-1.7,0.8-1.7,1.7v26.5c0,0.9,0.8,1.7,1.7,1.7h17.8V82
			c0,0.2,0,0.4,0.1,0.5H87.9C86.8,82.5,86,81.7,86,80.7z M110.9,54.6h-1.2c-1.2,0-2.2,1-2.2,2.2v18.7H89.7c-0.4,0-0.7-0.3-0.7-0.7
			V48.3c0-0.4,0.3-0.7,0.7-0.7h20.4c0.4,0,0.7,0.3,0.7,0.7v6.3H110.9z M107.8,83C107.8,83,107.9,83.1,107.8,83
			C107.9,83.1,107.8,83,107.8,83z M124,82c0,0.6-0.5,1.2-1.2,1.2h-13.1c-0.6,0-1.2-0.5-1.2-1.2v-3.3H124V82z M124,77.7h-15.5V59.5
			H124V77.7z M124,58.5h-15.5v-1.7c0-0.6,0.5-1.2,1.2-1.2h13.1c0.6,0,1.2,0.5,1.2,1.2L124,58.5z"/>
		<circle class="st0" cx="116.7" cy="81.2" r="1.1"/>
	</g>
</g>
<g id="form">
	<path class="st0" d="M77.2,42H48.1c-1.6,0-3,1.3-3,3v6.5v1V81c0,1.6,1.3,3,3,3h29.1c1.6,0,3-1.3,3-3V52.4v-1V45
		C80.2,43.3,78.9,42,77.2,42z M79.2,81c0,1.1-0.9,2-2,2H48.1c-1.1,0-2-0.9-2-2V52.4h33V81H79.2z M46.2,51.4V45c0-1.1,0.9-2,2-2h29.1
		c1.1,0,2,0.9,2,2v6.5L46.2,51.4L46.2,51.4z"/>
	<path class="st0" d="M51.3,44.6c-1.5,0-2.8,1.2-2.8,2.8c0,1.5,1.2,2.8,2.8,2.8s2.8-1.2,2.8-2.8C54,45.8,52.8,44.6,51.3,44.6z
		 M51.3,49.1c-1,0-1.8-0.8-1.8-1.8s0.8-1.8,1.8-1.8s1.8,0.8,1.8,1.8S52.2,49.1,51.3,49.1z"/>
	<path class="st0" d="M58.1,44.6c-1.5,0-2.8,1.2-2.8,2.8c0,1.5,1.2,2.8,2.8,2.8c1.5,0,2.8-1.2,2.8-2.8S59.6,44.6,58.1,44.6z
		 M58.1,49.1c-1,0-1.8-0.8-1.8-1.8s0.8-1.8,1.8-1.8s1.8,0.8,1.8,1.8S59.1,49.1,58.1,49.1z"/>
	<path class="st0" d="M65,44.6c-1.5,0-2.8,1.2-2.8,2.8c0,1.5,1.2,2.8,2.8,2.8c1.6,0,2.8-1.2,2.8-2.8C67.7,45.8,66.5,44.6,65,44.6z
		 M65,49.1c-1,0-1.8-0.8-1.8-1.8s0.8-1.8,1.8-1.8s1.8,0.8,1.8,1.8S65.9,49.1,65,49.1z"/>
	<path class="st0" d="M76.4,45.1h-2.9c-0.3,0-0.5,0.2-0.5,0.5s0.2,0.5,0.5,0.5h2.9c0.3,0,0.5-0.2,0.5-0.5S76.7,45.1,76.4,45.1z"/>
	<path class="st0" d="M52.6,65.5h20.2c0.9,0,1.6-0.7,1.6-1.6v-3.4c0-0.9-0.7-1.6-1.6-1.6H52.6c-0.9,0-1.6,0.7-1.6,1.6v3.4
		C51,64.8,51.7,65.5,52.6,65.5z M52,60.5c0-0.3,0.3-0.6,0.6-0.6h20.2c0.3,0,0.6,0.3,0.6,0.6v3.4c0,0.3-0.3,0.6-0.6,0.6H52.6
		c-0.3,0-0.6-0.3-0.6-0.6V60.5z"/>
	<path class="st0" d="M52.6,74.9h20.2c0.9,0,1.6-0.7,1.6-1.6v-3.4c0-0.9-0.7-1.6-1.6-1.6H52.6c-0.9,0-1.6,0.7-1.6,1.6v3.4
		C51,74.1,51.7,74.9,52.6,74.9z M52,69.8c0-0.3,0.3-0.6,0.6-0.6h20.2c0.3,0,0.6,0.3,0.6,0.6v3.4c0,0.3-0.3,0.6-0.6,0.6H52.6
		c-0.3,0-0.6-0.3-0.6-0.6V69.8z"/>
</g>
<g id="map">
	<path class="st0" d="M21.5,61.9c3.2,0,5.8-2.6,5.8-5.8s-2.6-5.8-5.8-5.8s-5.8,2.6-5.8,5.8C15.7,59.4,18.3,61.9,21.5,61.9z
		 M21.5,51.4c2.6,0,4.8,2.1,4.8,4.8c0,2.6-2.1,4.8-4.8,4.8c-2.6,0-4.8-2.1-4.8-4.8S18.8,51.4,21.5,51.4z"/>
	<path class="st0" d="M39.8,81.6l-6-14.1c-0.2-0.6-0.8-1-1.4-1h-2.5c2.2-3.9,3.9-7.8,3.9-10.4c0-6.9-5.6-12.5-12.5-12.5
		S8.8,49.2,8.8,56.1c0,2.6,1.7,6.5,3.9,10.4H9.6c-0.6,0-1.2,0.4-1.4,1l-6,14.1C2,82.1,2.4,82.7,3,82.7h17.9h17.9
		C39.6,82.7,40,82.1,39.8,81.6z M9.9,56.1c0-6.3,5.2-11.5,11.5-11.5s11.5,5.2,11.5,11.5c0,2.3-1.7,6.2-4,10.4
		c-0.2,0.3-0.4,0.7-0.6,1c-2,3.5-4.5,7.2-6.9,10.5c-2.4-3.3-4.9-7-6.9-10.5c-0.2-0.3-0.4-0.7-0.6-1C11.5,62.4,9.9,58.5,9.9,56.1z
		 M21.1,81.7H3.4l5.9-13.9c0.1-0.2,0.2-0.3,0.4-0.3h3.6c2.8,4.9,6.1,9.5,7.4,11.4c0.2,0.2,0.4,0.3,0.6,0.3c0.2,0,0.5-0.1,0.6-0.3
		c1.3-1.8,4.6-6.5,7.4-11.4h3.1c0.2,0,0.4,0.1,0.4,0.3l5.9,13.9H21.1z"/>
</g>
<g id="layers">
	<path class="st1" d="M125.2,28.1l-5.2-3.3h-0.2l-13.4,8.4c-0.5,0.3-1.1,0.5-1.7,0.5c-0.6,0-1.2-0.2-1.7-0.5l-13.3-8.4l-5.1,3.3
		c-0.6,0.4-0.6,1.2,0,1.5l18.6,11.7c0.5,0.3,1.1,0.5,1.7,0.5c0.6,0,1.2-0.2,1.7-0.5l18.6-11.7C125.9,29.2,125.9,28.4,125.2,28.1z"/>
	<path class="st0" d="M120,24.9l-0.9,0.6l5.4,3.4L106,40.5c-0.3,0.2-0.7,0.3-1.1,0.3c-0.4,0-0.8-0.1-1.1-0.3L85.3,28.9l5.4-3.4
		l-0.9-0.6l-5.2,3.3c-0.6,0.4-0.6,1.2,0,1.5l18.6,11.7c0.5,0.3,1.1,0.5,1.7,0.5c0.6,0,1.2-0.2,1.7-0.5l18.6-11.7
		c0.6-0.4,0.6-1.2,0-1.5L120,24.9z"/>
	<path class="st0" d="M120,16.7l5.1-3.2c0.6-0.4,0.6-1.2,0-1.5L106.5,0.2c-0.5-0.3-1.1-0.5-1.7-0.5c-0.6,0-1.2,0.2-1.7,0.5L84.5,12
		c-0.6,0.4-0.6,1.2,0,1.5l5.1,3.2L84.4,20c-0.6,0.4-0.6,1.2,0,1.5L103,33.2c0.5,0.3,1.1,0.5,1.7,0.5c0.6,0,1.2-0.2,1.7-0.5L125,21.5
		c0.6-0.4,0.6-1.2,0-1.5L120,16.7z M103.8,1c0.3-0.2,0.7-0.3,1.1-0.3c0.4,0,0.8,0.1,1.1,0.3l18.5,11.7L106,24.3
		c-0.3,0.2-0.7,0.3-1.1,0.3c-0.4,0-0.8-0.1-1.1-0.3L85.3,12.7L103.8,1z M86.8,19.9v2l-1.6-1l1.8-1.1L86.8,19.9z M87.8,22.4l0.1,0.1
		v-3.2l1.8-1.1l-0.3,0.2v5.1l0.3,0.2L87.8,22.4z M90.4,24v-6.4l0.4-0.2l1.2,0.7V25L90.4,24z M92.4,25.2l0.5,0.3v-6.8l-0.7-0.5
		l2.6,1.6l-0.3-0.2v6.9l0.7,0.4L92.4,25.2z M96.9,28.1l-1.5-1v-6.9l2.4,1.5L97,21.2L96.9,28.1L96.9,28.1z M97.1,28.1l0.9,0.6v-6.9
		l1.5,1v6.9L97.1,28.1z M100.4,30.4L100.4,30.4v-6.8l-0.4-0.3l1.9,1.2v6.9l0.3,0.2L100.4,30.4z M106.1,32.5
		c-0.3,0.2-0.7,0.3-1.1,0.3c-0.4,0-0.8-0.1-1.1-0.3l-0.8-0.5v-6.9l-1-0.6l1.3,0.8c0.4,0.2,0.8,0.4,1.2,0.4l0,0v7
		c0.1,0,0.3,0.1,0.4,0.1c0.2,0,0.4,0,0.5-0.1v-7l0,0c0.4-0.1,0.8-0.2,1.1-0.4l1.4-0.9l-1,0.6v6.9l0.4-0.3L106.1,32.5z M109.6,30.2
		l-1.5,1v-6.9l1.9-1.2l-0.4,0.2V30.2z M110.6,29.6v-6.9l1.5-1v6.9L110.6,29.6z M112.3,28.5l0.7-0.4v-6.9l-0.8,0.5l2.3-1.5v6.9
		L112.3,28.5z M117,25.5l-1.5,1v-6.9l-0.3,0.2l2.6-1.6l-0.7,0.5L117,25.5L117,25.5z M119.6,24l-1.5,1v-6.9l1.8-1.1l-0.7,0.5l0.5,0.3
		V24L119.6,24z M122.1,22.4l-2.2,1.4l0.7-0.4v-5l-0.2-0.1l1.7,1.1V22.4z M123.1,21.7V20l1.5,0.9L123.1,21.7z"/>
</g>
<g id="color">
	<path class="st0" d="M83.2,15.1c0-7-5.7-12.7-12.7-12.7c-3,0-5.7,1-7.8,2.7c-2.2-1.7-4.9-2.7-7.8-2.7c-7,0-12.7,5.7-12.7,12.7
		c0,5.2,3.2,9.8,7.7,11.7c0,0.2,0,0.4,0,0.7c0,7,5.7,12.7,12.7,12.7s12.7-5.7,12.7-12.7c0-0.2,0-0.4,0-0.6
		C79.9,25,83.2,20.4,83.2,15.1z M43.2,15.1c0-6.5,5.3-11.7,11.7-11.7c2.6,0,5.1,0.9,7.1,2.4c-2.5,2.3-4.1,5.6-4.1,9.3
		c0,0.2,0,0.4,0,0.6c-4.2,1.7-7.2,5.5-7.8,10.1C46,23.8,43.2,19.8,43.2,15.1z M66.6,15.1c0,0.1,0,0.2,0,0.3c-1.3-0.4-2.6-0.6-4-0.6
		c-1.3,0-2.6,0.2-3.7,0.6c0-0.1,0-0.1,0-0.2c0-3.4,1.5-6.5,3.9-8.7C65.1,8.5,66.6,11.6,66.6,15.1z M62.7,23.7
		c-2.1-1.9-3.5-4.5-3.8-7.4c1.2-0.4,2.4-0.6,3.7-0.6c1.4,0,2.7,0.3,3.9,0.7C66.2,19.3,64.8,21.9,62.7,23.7z M67.4,16.8
		c3.7,1.7,6.3,5.2,6.8,9.4c-1.2,0.4-2.4,0.6-3.7,0.6c-2.6,0-5.1-0.9-7.1-2.4C65.6,22.4,67,19.8,67.4,16.8z M61.9,24.4
		c-2,1.5-4.4,2.4-7.1,2.4c-1.4,0-2.7-0.3-3.9-0.7c0.5-4.2,3.2-7.8,7-9.4C58.3,19.7,59.8,22.4,61.9,24.4z M74.3,27.4
		c0,6.5-5.3,11.7-11.7,11.7c-6.5,0-11.7-5.3-11.7-11.7c0-0.1,0-0.2,0-0.3c1.3,0.4,2.6,0.6,4,0.6c3,0,5.7-1,7.8-2.7
		c2.2,1.7,4.9,2.7,7.8,2.7c1.3,0,2.6-0.2,3.7-0.6C74.3,27.3,74.3,27.4,74.3,27.4z M75.2,25.8c-0.6-4.5-3.6-8.3-7.6-10.1
		c0-0.2,0-0.4,0-0.7c0-3.7-1.6-7-4.1-9.3c2-1.5,4.4-2.4,7.1-2.4c6.5,0,11.7,5.3,11.7,11.7C82.2,19.9,79.3,24,75.2,25.8z"/>
	<path class="st0" d="M78.9,12.6c-1.1-3.7-4.5-6.2-8.4-6.2c-0.3,0-0.5,0.2-0.5,0.5s0.2,0.5,0.5,0.5c3.4,0,6.4,2.3,7.4,5.5
		c0.1,0.2,0.3,0.4,0.5,0.4h0.1C78.8,13.1,79,12.8,78.9,12.6z"/>
	<path class="st0" d="M50.6,7.1c-3.6,1.4-5.8,5.1-5.5,8.9c0,0.3,0.2,0.5,0.5,0.5l0,0c0.3,0,0.5-0.3,0.5-0.5
		c-0.3-3.4,1.7-6.6,4.9-7.9c0.3-0.1,0.4-0.4,0.3-0.6C51.1,7.1,50.9,7,50.6,7.1z"/>
	<path class="st0" d="M66,35c-3,1.6-6.8,1-9.1-1.4c-0.2-0.2-0.5-0.2-0.7,0s-0.2,0.5,0,0.7c1.7,1.7,3.9,2.6,6.2,2.6
		c1.4,0,2.8-0.3,4.1-1c0.2-0.1,0.3-0.4,0.2-0.7C66.5,34.9,66.2,34.8,66,35z"/>
</g>
<g id="design">
	<path class="st0" d="M29.4,24.5l-4-10.7L26.9,2c0.1-0.5-0.1-0.9-0.4-1.3c-0.3-0.3-0.7-0.5-1.2-0.5h-8.5c-0.5,0-0.9,0.2-1.2,0.5
		S15.2,1.5,15.2,2l1.5,11.7l-4,10.8c-0.3,0.9-0.2,1.8,0.3,2.6l7.4,10.8c0.1,0.2,0.4,0.3,0.6,0.3l0,0c0.2,0,0.5-0.1,0.6-0.3L29,27.1
		C29.6,26.2,29.8,25.2,29.4,24.5z M16.1,1.9c0-0.2,0-0.4,0.2-0.5c0.1-0.1,0.3-0.2,0.5-0.2h8.5c0.2,0,0.4,0.1,0.5,0.2S26,1.7,26,1.9
		l-1.4,11.4h-6.9L16.1,1.9z M21.1,23.1C20,23.1,19,22.2,19,21s0.9-2.1,2.1-2.1c1.1,0,2.1,0.9,2.1,2.1S22.1,23.1,21.1,23.1z
		 M28.3,26.5l-6.7,9.8V24.2c1.4-0.3,2.5-1.5,2.5-3c0-1.7-1.4-3-3-3s-3,1.4-3,3c0,1.5,1.1,2.8,2.6,3v12.1l-6.8-9.8
		c-0.3-0.5-0.4-1.1-0.2-1.7l3.9-10.6h7l3.9,10.6C28.6,25.4,28.6,26,28.3,26.5z"/>
	<path class="st0" d="M36.8,37.2h-2c-0.6,0-1.1,0.5-1.1,1.1v0.5h-6.6c7.8-2.6,13.4-9.9,13.4-18.5c0-0.3-0.2-0.5-0.5-0.5
		s-0.5,0.2-0.5,0.5c0,10.2-8.3,18.5-18.5,18.5S2.5,30.5,2.5,20.3c0-0.3-0.2-0.5-0.5-0.5S1.5,20,1.5,20.3c0,8.6,5.6,15.9,13.4,18.5
		H8.3v-0.5c0-0.6-0.5-1.1-1.1-1.1h-2c-0.6,0-1.1,0.5-1.1,1.1v2c0,0.6,0.5,1.1,1.1,1.1h2c0.6,0,1.1-0.5,1.1-1.1v-0.5h25.3v0.5
		c0,0.6,0.5,1.1,1.1,1.1h2c0.6,0,1.1-0.5,1.1-1.1v-2C38.1,37.7,37.4,37.2,36.8,37.2z M7.3,40.5c0,0.1-0.1,0.2-0.2,0.2h-2
		c-0.1,0-0.2-0.1-0.2-0.2v-2c0-0.1,0.1-0.2,0.2-0.2h2c0.1,0,0.2,0.1,0.2,0.2V40.5z M37.1,40.5c0,0.1-0.1,0.2-0.2,0.2h-2
		c-0.1,0-0.2-0.1-0.2-0.2v-2c0-0.1,0.1-0.2,0.2-0.2h2c0.1,0,0.2,0.1,0.2,0.2V40.5z"/>
</g>
</svg>
