<?xml version="1.0" encoding="utf-8"?>
<!-- Generator: Adobe Illustrator 19.0.0, SVG Export Plug-In . SVG Version: 6.00 Build 0)  -->
<svg version="1.1" id="Слой_1" xmlns="http://www.w3.org/2000/svg" xmlns:xlink="http://www.w3.org/1999/xlink" x="0px" y="0px"
	 width="264px" height="88px" viewBox="-173 353 264 88" style="enable-background:new -173 353 264 88;" xml:space="preserve">
<style type="text/css">
	.st0{fill:#FFFFFF;}
</style>
<title>default-skin 2</title>
<g>
	<path class="st0" d="M-145.7,423c0,0.2-0.1,0.4-0.3,0.6l-1.2,1.2c-0.2,0.2-0.4,0.3-0.6,0.3c-0.2,0-0.4-0.1-0.6-0.3l-2.6-2.6
		l-2.6,2.6c-0.2,0.2-0.4,0.3-0.6,0.3c-0.2,0-0.4-0.1-0.6-0.3l-1.2-1.2c-0.2-0.2-0.3-0.4-0.3-0.6c0-0.2,0.1-0.4,0.3-0.6l2.6-2.6
		l-2.6-2.6c-0.2-0.2-0.3-0.4-0.3-0.6s0.1-0.4,0.3-0.6l1.2-1.2c0.2-0.2,0.4-0.3,0.6-0.3c0.2,0,0.4,0.1,0.6,0.3l2.6,2.6l2.6-2.6
		c0.2-0.2,0.4-0.3,0.6-0.3c0.2,0,0.4,0.1,0.6,0.3l1.2,1.2c0.2,0.2,0.3,0.4,0.3,0.6s-0.1,0.4-0.3,0.6l-2.6,2.6l2.6,2.6
		C-145.8,422.5-145.7,422.7-145.7,423z"/>
	<path class="st0" d="M-151.1,376.6c0,0.1,0,0.1-0.1,0.2l-3,3l1.3,1.3c0.1,0.1,0.2,0.2,0.2,0.4c0,0.2-0.1,0.3-0.2,0.4
		c-0.1,0.1-0.2,0.2-0.4,0.2h-4c-0.2,0-0.3-0.1-0.4-0.2c-0.1-0.1-0.2-0.2-0.2-0.4v-4c0-0.2,0.1-0.3,0.2-0.4c0.1-0.1,0.2-0.2,0.4-0.2
		s0.3,0.1,0.4,0.2l1.3,1.3l3-3c0.1-0.1,0.1-0.1,0.2-0.1c0.1,0,0.1,0,0.2,0.1l1,1C-151.1,376.5-151.1,376.5-151.1,376.6z
		 M-144.1,368.9v4c0,0.2-0.1,0.3-0.2,0.4c-0.1,0.1-0.2,0.2-0.4,0.2c-0.2,0-0.3-0.1-0.4-0.2l-1.3-1.3l-3,3c-0.1,0.1-0.1,0.1-0.2,0.1
		s-0.1,0-0.2-0.1l-1-1c-0.1-0.1-0.1-0.1-0.1-0.2s0-0.1,0.1-0.2l3-3l-1.3-1.3c-0.1-0.1-0.2-0.2-0.2-0.4c0-0.2,0.1-0.3,0.2-0.4
		c0.1-0.1,0.2-0.2,0.4-0.2h4c0.2,0,0.3,0.1,0.4,0.2C-144.2,368.6-144.1,368.7-144.1,368.9z"/>
	<path class="st0" d="M-55.6,382c0,0.3-0.1,0.6-0.3,0.8c-0.2,0.2-0.5,0.3-0.8,0.3c-0.3,0-0.6-0.1-0.8-0.3l-3.1-3.1
		c-1.1,0.7-2.3,1.1-3.6,1.1c-0.9,0-1.7-0.2-2.4-0.5c-0.8-0.3-1.4-0.8-2-1.3s-1-1.2-1.3-2c-0.3-0.8-0.5-1.6-0.5-2.4
		c0-0.9,0.2-1.7,0.5-2.4c0.3-0.8,0.8-1.4,1.3-2s1.2-1,2-1.3c0.8-0.3,1.6-0.5,2.4-0.5s1.7,0.2,2.4,0.5c0.8,0.3,1.4,0.8,2,1.3
		s1,1.2,1.3,2c0.3,0.8,0.5,1.6,0.5,2.4c0,1.3-0.4,2.5-1.1,3.6l3.1,3.1C-55.7,381.5-55.6,381.7-55.6,382z M-61.3,377.4
		c0.8-0.8,1.2-1.7,1.2-2.8c0-1.1-0.4-2-1.2-2.8c-0.8-0.8-1.7-1.2-2.8-1.2s-2,0.4-2.8,1.2c-0.8,0.8-1.2,1.7-1.2,2.8
		c0,1.1,0.4,2,1.2,2.8c0.8,0.8,1.7,1.2,2.8,1.2S-62.1,378.2-61.3,377.4z M-61.3,374.3v0.6c0,0.1,0,0.1-0.1,0.2s-0.1,0.1-0.2,0.1h-2
		v2c0,0.1,0,0.1-0.1,0.2c-0.1,0.1-0.1,0.1-0.2,0.1h-0.6c-0.1,0-0.1,0-0.2-0.1c-0.1-0.1-0.1-0.1-0.1-0.2v-2h-2c-0.1,0-0.1,0-0.2-0.1
		s-0.1-0.1-0.1-0.2v-0.6c0-0.1,0-0.1,0.1-0.2s0.1-0.1,0.2-0.1h2v-2c0-0.1,0-0.1,0.1-0.2c0.1-0.1,0.1-0.1,0.2-0.1h0.6
		c0.1,0,0.1,0,0.2,0.1c0.1,0.1,0.1,0.1,0.1,0.2v2h2c0.1,0,0.1,0,0.2,0.1S-61.3,374.2-61.3,374.3z"/>
	<path class="st0" d="M-11.6,382c0,0.3-0.1,0.6-0.3,0.8c-0.2,0.2-0.5,0.3-0.8,0.3c-0.3,0-0.6-0.1-0.8-0.3l-3.1-3.1
		c-1.1,0.7-2.3,1.1-3.6,1.1c-0.9,0-1.7-0.2-2.4-0.5c-0.8-0.3-1.4-0.8-2-1.3s-1-1.2-1.3-2c-0.3-0.8-0.5-1.6-0.5-2.4
		c0-0.9,0.2-1.7,0.5-2.4c0.3-0.8,0.8-1.4,1.3-2s1.2-1,2-1.3c0.8-0.3,1.6-0.5,2.4-0.5c0.9,0,1.7,0.2,2.4,0.5c0.8,0.3,1.4,0.8,2,1.3
		s1,1.2,1.3,2c0.3,0.8,0.5,1.6,0.5,2.4c0,1.3-0.4,2.5-1.1,3.6l3.1,3.1C-11.7,381.5-11.6,381.7-11.6,382z M-17.3,377.4
		c0.8-0.8,1.2-1.7,1.2-2.8c0-1.1-0.4-2-1.2-2.8c-0.8-0.8-1.7-1.2-2.8-1.2c-1.1,0-2,0.4-2.8,1.2c-0.8,0.8-1.2,1.7-1.2,2.8
		c0,1.1,0.4,2,1.2,2.8c0.8,0.8,1.7,1.2,2.8,1.2C-19,378.6-18.1,378.2-17.3,377.4z M-17.3,374.3v0.6c0,0.1,0,0.1-0.1,0.2
		s-0.1,0.1-0.2,0.1h-5.1c-0.1,0-0.1,0-0.2-0.1s-0.1-0.1-0.1-0.2v-0.6c0-0.1,0-0.1,0.1-0.2s0.1-0.1,0.2-0.1h5.1c0.1,0,0.1,0,0.2,0.1
		S-17.3,374.2-17.3,374.3z"/>
	<path class="st0" d="M-107,375.8v4c0,0.2-0.1,0.3-0.2,0.4c-0.1,0.1-0.2,0.2-0.4,0.2s-0.3-0.1-0.4-0.2l-1.3-1.3l-3,3
		c-0.1,0.1-0.1,0.1-0.2,0.1c-0.1,0-0.1,0-0.2-0.1l-1-1c-0.1-0.1-0.1-0.1-0.1-0.2c0-0.1,0-0.1,0.1-0.2l3-3l-1.3-1.3
		c-0.1-0.1-0.2-0.2-0.2-0.4c0-0.2,0.1-0.3,0.2-0.4c0.1-0.1,0.2-0.2,0.4-0.2h4c0.2,0,0.3,0.1,0.4,0.2
		C-107.1,375.5-107,375.6-107,375.8z M-100.3,369.8c0,0.1,0,0.1-0.1,0.2l-3,3l1.3,1.3c0.1,0.1,0.2,0.2,0.2,0.4
		c0,0.2-0.1,0.3-0.2,0.4c-0.1,0.1-0.2,0.2-0.4,0.2h-4c-0.2,0-0.3-0.1-0.4-0.2c-0.1-0.1-0.2-0.2-0.2-0.4v-4c0-0.2,0.1-0.3,0.2-0.4
		c0.1-0.1,0.2-0.2,0.4-0.2s0.3,0.1,0.4,0.2l1.3,1.3l3-3c0.1-0.1,0.1-0.1,0.2-0.1s0.1,0,0.2,0.1l1,1
		C-100.3,369.6-100.3,369.7-100.3,369.8z"/>
	<path class="st0" d="M-56.7,419.8c0,0.3-0.1,0.6-0.3,0.8l-5.8,5.8c-0.2,0.2-0.5,0.3-0.8,0.3c-0.3,0-0.6-0.1-0.8-0.3l-0.7-0.7
		c-0.2-0.2-0.3-0.5-0.3-0.8s0.1-0.6,0.3-0.8l2.6-2.6h-6.3c-0.3,0-0.6-0.1-0.8-0.3c-0.2-0.2-0.3-0.5-0.3-0.8v-1.1
		c0-0.3,0.1-0.6,0.3-0.8c0.2-0.2,0.4-0.3,0.8-0.3h6.3l-2.6-2.6c-0.2-0.2-0.3-0.5-0.3-0.8c0-0.3,0.1-0.6,0.3-0.8l0.7-0.7
		c0.2-0.2,0.5-0.3,0.8-0.3c0.3,0,0.6,0.1,0.8,0.3l5.8,5.8C-56.8,419.2-56.7,419.4-56.7,419.8z"/>
	<path class="st0" d="M-12.1,419.2v1.1c0,0.3-0.1,0.6-0.3,0.8c-0.2,0.2-0.4,0.3-0.8,0.3h-6.3l2.6,2.6c0.2,0.2,0.3,0.5,0.3,0.8
		s-0.1,0.6-0.3,0.8l-0.7,0.7c-0.2,0.2-0.5,0.3-0.8,0.3c-0.3,0-0.6-0.1-0.8-0.3l-5.8-5.8c-0.2-0.2-0.3-0.5-0.3-0.8
		c0-0.3,0.1-0.6,0.3-0.8l5.8-5.8c0.2-0.2,0.5-0.3,0.8-0.3c0.3,0,0.6,0.1,0.8,0.3l0.7,0.7c0.2,0.2,0.3,0.5,0.3,0.8
		c0,0.3-0.1,0.6-0.3,0.8l-2.6,2.6h6.3c0.3,0,0.6,0.1,0.8,0.3C-12.2,418.6-12.1,418.9-12.1,419.2z"/>
	<path class="st0" d="M-103,420.3c0.8,0,1.5,0.3,2,0.8s0.8,1.2,0.8,2c0,0.8-0.3,1.5-0.8,2c-0.6,0.6-1.2,0.8-2,0.8
		c-0.8,0-1.5-0.3-2-0.8c-0.6-0.6-0.8-1.2-0.8-2c0-0.1,0-0.2,0-0.3l-3.2-1.6c-0.5,0.5-1.2,0.8-1.9,0.8c-0.8,0-1.5-0.3-2-0.8
		c-0.6-0.6-0.8-1.2-0.8-2c0-0.8,0.3-1.5,0.8-2c0.6-0.6,1.2-0.8,2-0.8c0.8,0,1.4,0.3,1.9,0.8l3.2-1.6c0-0.1,0-0.2,0-0.3
		c0-0.8,0.3-1.5,0.8-2c0.6-0.6,1.2-0.8,2-0.8c0.8,0,1.5,0.3,2,0.8s0.8,1.2,0.8,2c0,0.8-0.3,1.5-0.8,2c-0.6,0.6-1.2,0.8-2,0.8
		c-0.8,0-1.4-0.3-1.9-0.8l-3.2,1.6c0,0.1,0,0.2,0,0.3c0,0.1,0,0.2,0,0.3l3.2,1.6C-104.4,420.6-103.8,420.3-103,420.3z"/>
</g>
</svg>
