<?xml version="1.0" encoding="utf-8"?>
<!-- Generator: Adobe Illustrator 20.1.0, SVG Export Plug-In . SVG Version: 6.00 Build 0)  -->
<svg version="1.1" id="Слой_1" xmlns="http://www.w3.org/2000/svg" xmlns:xlink="http://www.w3.org/1999/xlink" x="0px" y="0px"
	 width="48px" height="48px" viewBox="0 0 48 48" style="enable-background:new 0 0 48 48;" xml:space="preserve">
<style type="text/css">
	.st0{opacity:0.19;enable-background:new    ;}
	.st1{fill:#F2552C;}
	.st2{fill:#BC3D24;}
	.st3{fill:#A3351F;}
</style>
<ellipse class="st0" cx="24.5" cy="44.7" rx="10.4" ry="3.3"/>
<path class="st1" d="M40,15.5c0,8.6-15.5,29.3-15.5,29.3S9,24.1,9,15.5S15.9,0,24.5,0S40,6.9,40,15.5z"/>
<circle class="st2" cx="24.6" cy="15.5" r="5.9"/>
<path class="st3" d="M24.6,11.6c2.9,0,5.3,2.1,5.8,4.9c0.1-0.3,0.1-0.7,0.1-1c0-3.2-2.6-5.9-5.9-5.9c-3.2,0-5.9,2.6-5.9,5.9
	c0,0.3,0,0.7,0.1,1C19.3,13.7,21.7,11.6,24.6,11.6z"/>
</svg>
